<?xml version="1.0" encoding="UTF-8" standalone="no"?>
<!-- Created with Inkscape (http://www.inkscape.org/) -->

<svg
   version="1.1"
   id="svg1"
   width="120"
   height="120"
   viewBox="0 0 120.00001 120"
   sodipodi:docname="favicon_sm.svg"
   inkscape:version="1.4.4 (dcaf3e7d9e, 2026-05-05)"
   xmlns:inkscape="http://www.inkscape.org/namespaces/inkscape"
   xmlns:sodipodi="http://sodipodi.sourceforge.net/DTD/sodipodi-0.dtd"
   xmlns="http://www.w3.org/2000/svg"
   xmlns:svg="http://www.w3.org/2000/svg">
  <sodipodi:namedview
     id="namedview1"
     pagecolor="#505050"
     bordercolor="#eeeeee"
     borderopacity="1"
     inkscape:showpageshadow="0"
     inkscape:pageopacity="0"
     inkscape:pagecheckerboard="0"
     inkscape:deskcolor="#505050"
     inkscape:zoom="5.1029539"
     inkscape:cx="44.484039"
     inkscape:cy="61.141057"
     inkscape:window-width="1920"
     inkscape:window-height="1080"
     inkscape:window-x="0"
     inkscape:window-y="0"
     inkscape:window-maximized="1"
     inkscape:current-layer="svg1" />
  <defs
     id="defs1" />
  <g
     id="g201"
     style="display:inline"
     transform="matrix(0.3923886,0,0,0.39238834,-207.70961,-301.54705)">
    <g
       id="g190"
       style="display:inline">
      <g
         id="g189"
         style="display:inline"
         transform="matrix(-0.80312219,1.0218943,1.0218943,0.80312219,794.55047,-690.5213)">
        <path
           style="opacity:1;fill:#a3ba6d;fill-opacity:1;stroke:#515e3c;stroke-width:10.9916;stroke-linecap:round;stroke-linejoin:round;stroke-dasharray:none;stroke-opacity:1;paint-order:stroke fill markers"
           d="m 1027.289,737.29907 18.3736,-29.61027 c -9.1248,-32.50677 7.5046,-43.51521 16.7324,-55.10844 25.1807,-21.31501 63.8834,-25.15225 96.3113,6.16526 -13.1434,2.01421 -35.6808,14.12277 -46.1561,37.65807 -7.0926,8.44471 -48.3226,14.48458 -59.4249,7.34355 -5.6436,11.92046 -11.1087,24.3172 -14.5601,42.08361 z"
           id="path188" />
        <path
           style="opacity:1;fill:#5f7336;fill-opacity:1;stroke:#515e3c;stroke-width:0;stroke-linecap:round;stroke-linejoin:round;stroke-dasharray:none;stroke-opacity:1;paint-order:stroke fill markers"
           d="m 1044.437,702.68271 c 9.9737,-15.36883 40.2828,-47.03841 82.1816,-49.08413 -48.8204,9.4095 -69.3725,43.53154 -81.0205,54.07693 z"
           id="path189" />
      </g>
      <g
         id="g2"
         style="display:inline"
         transform="matrix(0.80312219,1.0218943,-1.0218943,0.80312219,569.96225,-690.5213)">
        <path
           style="opacity:1;fill:#a3ba6d;fill-opacity:1;stroke:#515e3c;stroke-width:10.9916;stroke-linecap:round;stroke-linejoin:round;stroke-dasharray:none;stroke-opacity:1;paint-order:stroke fill markers"
           d="m 1027.289,737.29907 18.3736,-29.61027 c -9.1248,-32.50677 7.5046,-43.51521 16.7324,-55.10844 25.1807,-21.31501 63.8834,-25.15225 96.3113,6.16526 -13.1434,2.01421 -35.6808,14.12277 -46.1561,37.65807 -7.0926,8.44471 -48.3226,14.48458 -59.4249,7.34355 -5.6436,11.92046 -11.1087,24.3172 -14.5601,42.08361 z"
           id="path1" />
        <path
           style="opacity:1;fill:#5f7336;fill-opacity:1;stroke:#515e3c;stroke-width:0;stroke-linecap:round;stroke-linejoin:round;stroke-dasharray:none;stroke-opacity:1;paint-order:stroke fill markers"
           d="m 1044.437,702.68271 c 9.9737,-15.36883 40.2828,-47.03841 82.1816,-49.08413 -48.8204,9.4095 -69.3725,43.53154 -81.0205,54.07693 z"
           id="path2" />
      </g>
    </g>
    <g
       id="g200"
       style="display:inline">
      <g
         id="g191"
         style="opacity:1">
        <path
           style="display:inline;opacity:1;fill:#f7f5dc;fill-opacity:1;stroke:#a8a68f;stroke-width:13;stroke-linecap:round;stroke-linejoin:round;stroke-dasharray:none;stroke-opacity:1;paint-order:stroke fill markers"
           d="m 721.84766,887.39882 c 0.72327,-56.94624 -26.84223,-59.491 -43.47809,-83.05429 -45.52919,51.38576 -44.79643,67.39475 -40.69102,80.82464 -28.55015,-17.18809 -58.63743,-5.17079 -88.6284,5.0167 19.5094,54.52531 39.01879,72.47041 58.52819,69.11901 -7.85657,16.60889 -24.33409,5.36551 -14.4927,79.15242 34.57691,-2.5626 67.26629,-9.3196 88.6284,-41.24845 13.27453,28.34555 42.66548,40.57465 84.16911,40.69105 15.34977,-38.7212 3.84611,-59.98768 -10.0334,-79.70985 22.01479,1.55082 40.95734,-26.59677 58.52818,-68.00418 -75.85262,-22.91025 -77.48497,-9.5734 -92.53027,-2.78705 z"
           id="path190" />
        <path
           style="opacity:1;fill:#dacca7;fill-opacity:1;stroke:#a8a68f;stroke-width:0;stroke-linecap:round;stroke-linejoin:round;stroke-dasharray:none;stroke-opacity:1;paint-order:stroke fill markers"
           d="m 672.02459,924.67431 c 4.36225,-24.95237 3.49224,-54.3047 8.76692,-80.61754 4.01248,20.99441 4.66604,53.74503 6.99906,80.61754 L 723.264,883.68278 c -2.4986,13.30055 -14.66035,29.89223 -26.408,45.32717 32.17104,-11.99068 61.51671,-21.92653 85.53041,-27.9846 -24.12277,13.16417 -48.01354,26.44435 -76.46497,37.44419 19.53973,5.84889 37.48035,14.06447 54.922,21.31208 -18.15076,-1.17505 -41.05236,-9.12601 -63.98744,-13.03495 30.47034,37.36364 37.78624,47.86813 50.84526,65.03463 -20.15582,-18.02717 -37.7813,-33.88549 -62.66974,-55.96919 -0.88188,15.01153 -0.57664,31.72288 -3.59515,43.17336 -2.35985,-17.29345 -4.5938,-31.37263 -5.47028,-41.99091 -21.60603,19.3581 -44.86247,40.69668 -63.06389,55.96924 11.89476,-21.67267 33.58723,-44.23605 53.21016,-66.61128 l -60.12178,13.86696 47.90315,-22.53824 c -26.0801,-11.69163 -53.55476,-19.66444 -77.64742,-36.65589 25.00582,3.82369 56.95992,16.91176 85.92455,26.01386 -11.65651,-15.58913 -20.29661,-30.61183 -25.29318,-43.24099 9.73544,8.82885 20.21865,21.6616 35.14691,40.87609 z"
           id="path191" />
      </g>
    </g>
  </g>
</svg>
